<?xml version="1.0" encoding="utf-8"?>
<!-- Generator: Adobe Illustrator 22.0.0, SVG Export Plug-In . SVG Version: 6.00 Build 0)  -->
<svg version="1.1" id="图层_1" xmlns="http://www.w3.org/2000/svg" xmlns:xlink="http://www.w3.org/1999/xlink" x="0px" y="0px"
	 viewBox="0 0 148 22" style="enable-background:new 0 0 148 22;" xml:space="preserve">
<style type="text/css">
	.st0{fill:#F2F2F2;}
</style>
<g>
	<path class="st0" d="M58.7,14.2c-2.4-0.7-4.7-1.9-6.5-3.6c0.2-5.9,5-10.6,11-10.6c5.1,0,9.4,3.5,10.6,8.2h-5.9
		c-1-1.6-2.7-2.7-4.7-2.7c-3,0-5.5,2.5-5.5,5.5C57.7,12.2,58.1,13.3,58.7,14.2z M74.2,11h-2.8h-2.7v0H65v2.8h3
		c-1,1.6-2.7,2.7-4.7,2.7c0,0,0,0,0,0v0c-4.2,0-8-1.6-10.9-4.1C53,17.8,57.6,22,63.2,22c3.3,0,6.2-1.4,8.2-3.7V22h2.8v-8.2L74.2,11
		L74.2,11L74.2,11z M21.2,0.4L21.2,0.4l-15.1,0v5h10.5h0.1h8.2h0.1h1.3v-5L21.2,0.4L21.2,0.4z M22.4,8.2h-8.3l-8,8.8v5h20.1v-5H14.4
		L22.4,8.2z M48.7,10.3c1.2,1.2,2,2.9,2,4.8c0,3.8-3.1,6.9-6.9,6.9v0H35h-6.3v-5v-3.8v-5v0H37h5.4v0c0.8,0,1.4-0.6,1.4-1.4
		c0-0.8-0.6-1.4-1.4-1.4h-4.6V3.5V0.4h5.5c3.5,0,6.4,2.9,6.4,6.4C49.7,8.1,49.3,9.3,48.7,10.3z M43.8,15.1c0-1-0.8-1.8-1.7-1.9v0
		h-4.9H35V17h2.1H42v0C43,16.9,43.8,16.1,43.8,15.1z M35,0.4h-6.3v5H35V0.4z"/>
</g>
</svg>
